<?xml version="1.0" encoding="UTF-8"?>
<svg id="b" data-name="Layer 2" xmlns="http://www.w3.org/2000/svg" viewBox="0 0 46 60.77">
  <g id="c" data-name="artes_varios_am">
    <g>
      <g>
        <path d="m46,16.1v40.67c0,2.21-1.79,4-4,4H4c-2.21,0-4-1.79-4-4V4C0,1.79,1.79,0,4,0h25.79l16.21,16.1Z" fill="#006edc"/>
        <path d="m46,16.1V4.03c0-2.22-1.8-4.03-4.03-4.03h-12.18l16.21,16.1Z" fill="#99c5f1"/>
        <path d="m46,16.1h-12.18c-2.22,0-4.03-1.8-4.03-4.03V0s16.21,16.1,16.21,16.1Z" fill="#66a8ea"/>
      </g>
      <path d="m29.96,27.68c-.51-.41-1.26-.34-1.67.17-.42.51-.34,1.26.17,1.67.56.46.88,1.12.88,1.83s-.32,1.37-.88,1.83c-.51.42-.58,1.16-.17,1.67.23.29.58.44.92.44.26,0,.53-.09.75-.27,1.12-.91,1.75-2.25,1.75-3.67s-.64-2.75-1.75-3.67Zm3-3.66c-.51-.41-1.25-.34-1.67.17-.42.51-.34,1.26.17,1.67,1.68,1.38,2.64,3.38,2.64,5.49s-.96,4.11-2.64,5.49c-.51.42-.58,1.16-.17,1.67.24.29.58.43.92.43.27,0,.53-.09.75-.27,2.23-1.83,3.51-4.5,3.51-7.33s-1.28-5.5-3.51-7.33Zm-8.51-3.62c-.57-.26-1.24-.15-1.7.26l-6.68,5.94h-4.15c-1.31,0-2.38,1.06-2.38,2.33v4.71c0,1.31,1.06,2.33,2.38,2.33h4.15l6.68,5.94c.3.4.67.53,1.05.53.22,0,.44-.05.65-.14.57-.26.93-.82.93-1.44v-19.01c0-.62-.36-1.23-.93-1.44Z" fill="#fff"/>
    </g>
  </g>
</svg>